<?xml version="1.0" encoding="utf-8"?>
<!-- Generator: Adobe Illustrator 25.2.3, SVG Export Plug-In . SVG Version: 6.00 Build 0)  -->
<svg version="1.1" id="Layer_1" xmlns="http://www.w3.org/2000/svg" xmlns:xlink="http://www.w3.org/1999/xlink" x="0px" y="0px"
	 viewBox="0 0 270 106" style="enable-background:new 0 0 270 106;" width="270" height="106" xml:space="preserve">
<style type="text/css">
	.st0{fill:#626366;}
	.st1{fill:#313F98;}
	.st2{fill:#ED2829;}
</style>
<g>
	<path class="st0" d="M19.5,97l-1.8-4.4L15.9,97L19.5,97z M16.4,89l2.7,0l5.8,13.7l-3.1,0l-1.2-3.1l-5.7,0l-1.2,3.1l-3,0L16.4,89z"
		/>
	<path class="st0" d="M25.7,97.6L25.7,97.6c0-3,2.2-5.5,5.4-5.5c1.9,0,3.1,0.7,4.1,1.8l-1.8,2c-0.7-0.7-1.3-1.2-2.3-1.2
		c-1.5,0-2.5,1.3-2.5,2.8v0c0,1.6,1,2.9,2.6,2.9c1,0,1.6-0.4,2.4-1.1l1.7,1.8c-1,1.1-2.1,1.9-4.2,1.9C28,103,25.7,100.5,25.7,97.6"
		/>
	<path class="st0" d="M36.4,97.6L36.4,97.6c0-3,2.2-5.5,5.4-5.5c1.9,0,3.1,0.7,4.1,1.8l-1.8,2c-0.7-0.7-1.3-1.2-2.3-1.2
		c-1.5,0-2.5,1.3-2.5,2.8v0c0,1.6,1,2.9,2.6,2.9c1,0,1.6-0.4,2.4-1.1l1.7,1.8c-1,1.1-2.1,1.9-4.2,1.9C38.6,103,36.4,100.5,36.4,97.6
		"/>
	<path class="st0" d="M54.3,96.7c-0.2-1.3-0.9-2.2-2.2-2.2c-1.2,0-2,0.9-2.2,2.2H54.3z M47.1,97.6L47.1,97.6c0-3,2.1-5.5,5.1-5.5
		c3.4,0,5,2.7,5,5.7c0,0.2,0,0.5,0,0.8H50c0.3,1.3,1.2,2.1,2.5,2.1c1,0,1.7-0.3,2.5-1.1l1.7,1.5c-1,1.2-2.3,2-4.2,2
		C49.4,103,47.1,100.8,47.1,97.6"/>
	<rect x="59.5" y="88.5" class="st0" width="2.9" height="14.2"/>
	<path class="st0" d="M71.9,96.7c-0.2-1.3-0.9-2.2-2.2-2.2c-1.2,0-2,0.9-2.2,2.2H71.9z M64.7,97.6L64.7,97.6c0-3,2.1-5.5,5.1-5.5
		c3.4,0,5,2.7,5,5.7c0,0.2,0,0.5,0,0.8h-7.2c0.3,1.3,1.2,2.1,2.5,2.1c1,0,1.7-0.3,2.5-1.1l1.7,1.5c-1,1.2-2.3,2-4.2,2
		C66.9,103,64.7,100.8,64.7,97.6"/>
	<path class="st0" d="M77,92.3h2.9v2.1c0.6-1.4,1.6-2.4,3.3-2.3v3.1H83c-1.9,0-3.1,1.2-3.1,3.7v3.9H77V92.3z"/>
	<path class="st0" d="M90.8,99v-0.5c-0.5-0.2-1.2-0.4-1.9-0.4c-1.2,0-2,0.5-2,1.4v0c0,0.8,0.7,1.3,1.6,1.3
		C89.9,100.9,90.8,100.1,90.8,99 M84.1,99.7L84.1,99.7c0-2.3,1.7-3.4,4.1-3.4c1,0,1.8,0.2,2.5,0.4v-0.2c0-1.2-0.7-1.9-2.2-1.9
		c-1.1,0-1.9,0.2-2.8,0.6L85,93c1.1-0.5,2.2-0.8,4-0.8c1.6,0,2.7,0.4,3.5,1.2c0.8,0.8,1.1,1.9,1.1,3.3v6.1h-2.8v-1.1
		c-0.7,0.8-1.7,1.3-3.1,1.3C85.7,102.9,84.1,101.8,84.1,99.7"/>
	<path class="st0" d="M96.5,99.8v-5h-1.2v-2.5h1.2v-2.7h2.9v2.7h2.4v2.5h-2.4v4.5c0,0.7,0.3,1,0.9,1c0.5,0,1-0.1,1.4-0.4v2.4
		c-0.6,0.4-1.3,0.6-2.3,0.6C97.7,102.9,96.5,102.2,96.5,99.8"/>
	<path class="st0" d="M104.2,92.3h2.9v10.5h-2.9V92.3z M104.2,88.5h3.1v2.6h-3.1V88.5z"/>
	<path class="st0" d="M109.9,92.3h2.9v1.5c1.8-2.9,6.8-1.8,6.5,2.2c0,0,0,6.8,0,6.8h-2.9c-0.4-1.6,1.2-8.2-1.8-8
		c-3-0.2-1.4,6.3-1.8,8h-2.9V92.3z"/>
	<path class="st0" d="M129.4,97c0.1-3.2-5.1-3.2-5,0C124.2,100.2,129.5,100.2,129.4,97 M122,104.8l1-2.2c2.3,1.6,7,1.5,6.4-2.4
		c-2.4,3.3-8.1,1.5-7.9-3.2c-0.2-4.7,5.4-6.4,7.9-3.4v-1.4h2.9C132.5,100.5,133.4,109.3,122,104.8"/>
	<path class="st0" d="M140.3,95.9c-0.4-6.3,8.2-9.3,12.3-5.2l-1.9,2.3c-8.8-6.5-10.2,11.2-0.5,6.4v-2h-3v-2.6h5.8v5.9
		C149,105,139.9,102.7,140.3,95.9"/>
	<path class="st0" d="M163.6,97.6c0.2-3.7-5.6-3.8-5.4-0.1C158,101.2,163.8,101.3,163.6,97.6 M155.3,97.6
		c-0.3-7.1,11.3-7.2,11.1-0.1C166.7,104.5,155.1,104.7,155.3,97.6"/>
	<polygon class="st0" points="167.2,92.3 170.3,92.3 172.6,99.3 174.9,92.3 177.9,92.3 173.9,102.8 171.2,102.8 	"/>
	<path class="st0" d="M185.9,96.7c-0.2-1.3-0.9-2.2-2.2-2.2c-1.2,0-2,0.9-2.2,2.2H185.9z M178.6,97.6L178.6,97.6
		c0-3,2.1-5.5,5.1-5.5c3.4,0,5,2.7,5,5.7c0,0.2,0,0.5,0,0.8h-7.2c0.3,1.3,1.2,2.1,2.5,2.1c1,0,1.7-0.3,2.5-1.1l1.7,1.5
		c-1,1.2-2.3,2-4.2,2C180.9,103,178.6,100.8,178.6,97.6"/>
	<path class="st0" d="M190.9,92.3h2.9v2.1c0.6-1.4,1.6-2.4,3.3-2.3v3.1H197c-1.9,0-3.1,1.2-3.1,3.7v3.9h-2.9V92.3z"/>
	<path class="st0" d="M198.9,92.3h2.9v1.5c0.7-0.9,1.5-1.7,3-1.7c2.2,0,3.5,1.5,3.5,3.9v6.8h-2.9v-5.8c0-1.4-0.7-2.1-1.8-2.1
		c-1.1,0-1.8,0.7-1.8,2.1v5.8h-2.9V92.3z"/>
	<path class="st0" d="M211,92.3h2.9v1.5c0.7-0.9,1.6-1.7,3-1.7c1.3,0,2.4,0.6,2.9,1.7c0.9-1.1,2-1.7,3.4-1.7c2.2,0,3.5,1.3,3.5,3.8
		v6.8h-2.9v-5.8c0-1.4-0.6-2.1-1.7-2.1c-1.1,0-1.8,0.7-1.8,2.1v5.8h-2.9v-5.8c0-1.4-0.6-2.1-1.7-2.1c-1.1,0-1.8,0.7-1.8,2.1v5.8H211
		V92.3z"/>
	<path class="st0" d="M236.1,96.7c-0.2-1.3-0.9-2.2-2.2-2.2c-1.2,0-2,0.9-2.2,2.2H236.1z M228.9,97.6L228.9,97.6
		c0-3,2.1-5.5,5.1-5.5c3.4,0,5,2.7,5,5.7c0,0.2,0,0.5,0,0.8h-7.2c0.3,1.3,1.2,2.1,2.5,2.1c1,0,1.7-0.3,2.5-1.1l1.7,1.5
		c-1,1.2-2.3,2-4.2,2C231.1,103,228.9,100.8,228.9,97.6"/>
	<path class="st0" d="M241.2,92.3h2.9v1.5c0.7-0.9,1.5-1.7,3-1.7c2.2,0,3.5,1.5,3.5,3.9v6.8h-2.9v-5.8c0-1.4-0.7-2.1-1.8-2.1
		c-1.1,0-1.8,0.7-1.8,2.1v5.8h-2.9V92.3z"/>
	<path class="st0" d="M253.6,99.8v-5h-1.2v-2.5h1.2v-2.7h2.9v2.7h2.4v2.5h-2.4v4.5c0,0.7,0.3,1,0.9,1c0.5,0,1-0.1,1.4-0.4v2.4
		c-0.6,0.4-1.3,0.6-2.3,0.6C254.8,102.9,253.6,102.2,253.6,99.8"/>
	<path class="st1" d="M170.8,33.4v41.2c0,0.9-0.7,1.6-1.5,1.6h-9.2c-0.9,0-1.5-0.7-1.5-1.6V38.9c0-0.5,0.2-1,0.6-1.2
		c2.9-1.3,8.8-4.1,10.6-5C170.2,32.5,170.8,32.8,170.8,33.4"/>
	<path class="st1" d="M121.3,31.8h-2.7h-8.9v-8.5v-5.7c0-0.9-0.7-1.6-1.6-1.6H97.4h-1.2c-1.2,0-2,1.3-1.3,2.4l2.5,4.1V42v12
		c0,3.5,0.8,6.8,2.2,9.8c3.4,7.2,10.5,12.3,18.8,12.9c0.9,0.1,1.7-0.7,1.7-1.6v-9.2c0-0.8-0.6-1.4-1.4-1.5c-5.1-0.7-9-5.1-9-10.4
		v-9.9h2.4h3.4c0.5,0,1-0.3,1.3-0.7l5.8-9.2C123.3,33.1,122.5,31.8,121.3,31.8"/>
	<path class="st1" d="M140.4,47.3h-8.5c-0.9,0-1.6,0.7-1.6,1.6v4.4c0,3.6,2.9,6.4,6.4,6.4h8.5c0.9,0,1.6-0.7,1.6-1.6v-4.4
		C146.8,50.2,144,47.3,140.4,47.3"/>
	<path class="st1" d="M174.6,9.3v15.3c0,0.4-0.3,0.8-0.8,1c-2.5,0.9-12.6,5.6-14.1,6.3c-0.5,0.2-1.1,0-1.1-0.4V16.2
		c0-0.4,0.2-0.7,0.6-0.9c2.5-1.3,12.1-5.7,14.4-6.5C174,8.6,174.6,8.9,174.6,9.3"/>
	<path class="st2" d="M179.3,24.2c-0.5,0.1-1-0.1-1-0.5"/>
	<path class="st2" d="M179.3,13c4.4-1.3,10.9-2.6,13.8-3.1V4.9c0-0.3-0.4-0.6-0.9-0.5c-2.9,0.5-8.6,1.7-13,3c-0.6,0.2-0.9,0.6-0.9,1
		v4.1C178.3,12.8,178.8,13.1,179.3,13"/>
	<path class="st2" d="M179.3,24.2c4.4-1.3,10.9-2.6,13.8-3.1v-5.6c-3.5,0.5-9.4,1.8-13.8,3.1c-0.6,0.2-0.9,0.6-0.9,1v4.1
		C178.3,24,178.8,24.3,179.3,24.2"/>
	<path class="st2" d="M222.1,5.4c-9.2,4.6-18.6,8.2-29,10l0,0c0-2.2,0-3.4,0-5.6c10.4-1.8,19.3-5.1,28.5-9.8c0.5-0.2,1.1,0,1.1,0.4
		v4C222.7,4.9,222.5,5.2,222.1,5.4"/>
	<path class="st2" d="M222.1,16.6c-9,4.5-18.1,8-28.3,9.9c-0.4,0.1-0.7-0.2-0.7-0.6v-4.8c10.4-1.8,19.3-5.1,28.5-9.8
		c0.5-0.2,1.1,0,1.1,0.4v4C222.7,16.1,222.5,16.4,222.1,16.6"/>
	<path class="st1" d="M92.8,68.9l-6.5-6.5c-0.5-0.6-1.4-0.6-2-0.2c-1.8,1.4-4,2.2-6.4,2.2c-5.9,0-10.7-5-10.4-11
		c0.3-5.3,4.5-9.6,9.8-9.9c2.7-0.2,5.1,0.7,7,2.2c0.6,0.5,1.5,0.4,2-0.1l6.5-6.5c0.6-0.6,0.6-1.7-0.1-2.3
		c-4.3-3.8-10.1-5.9-16.3-5.5c-4.5,0.3-8.7,1.9-12.1,4.5l0,0L29,62.4v0c-4.1,3.1-9.9,2.8-13.6-1c-4.1-4.1-4.1-10.7,0-14.8
		c4.1-4.1,10.7-4.1,14.8,0c1.8,1.8,2.8,4.2,3,6.6l12.3-9.3V33c0-0.9-0.7-1.6-1.6-1.6h-9.1c-0.9,0-1.6,0.7-1.6,1.6v0.8
		c-8.5-4.4-19.3-3.1-26.5,4.1c-8.9,8.9-8.9,23.3,0,32.2c7.2,7.2,17.9,8.6,26.5,4.1V75c0,0.9,0.7,1.6,1.6,1.6h9.1
		c0.9,0,1.6-0.7,1.6-1.6v-9.6l10.1-7.6c1.8,10.8,11.1,19,22.4,19c5.7,0,10.9-2.1,14.8-5.5C93.4,70.6,93.4,69.6,92.8,68.9"/>
	<path class="st1" d="M269.5,68.9l-6.5-6.5c-0.5-0.6-1.4-0.6-2-0.2c-1.8,1.4-4,2.2-6.4,2.2c-5.9,0-10.7-5-10.4-11
		c0.3-5.3,4.5-9.6,9.8-9.9c2.7-0.2,5.1,0.7,7,2.2c0.6,0.5,1.5,0.4,2-0.1l6.5-6.5c0.6-0.6,0.6-1.7-0.1-2.3
		c-4.3-3.8-10.1-5.9-16.3-5.5c-4.5,0.3-8.7,1.9-12.1,4.5l0,0l-35.3,26.6v0c-4.1,3.1-9.9,2.8-13.6-1c-4.1-4.1-4.1-10.7,0-14.8
		c4.1-4.1,10.7-4.1,14.8,0c1.8,1.8,2.8,4.2,3,6.6l12.3-9.3V33c0-0.9-0.7-1.6-1.6-1.6h-9.1c-0.9,0-1.6,0.7-1.6,1.6v0.8
		c-8.5-4.4-19.3-3.1-26.5,4.1c-8.9,8.9-8.9,23.3,0,32.2c7.2,7.2,17.9,8.6,26.5,4.1V75c0,0.9,0.7,1.6,1.6,1.6h9.1
		c0.9,0,1.6-0.7,1.6-1.6v-9.6l10.1-7.6c1.8,10.8,11.1,19,22.4,19c5.7,0,10.9-2.1,14.8-5.5C270.2,70.6,270.2,69.6,269.5,68.9"/>
</g>
</svg>
